# xmcd CD database file
#
# Track frame offsets:
#	150
#	18750
#	35777
#	80175
#	108667
#	143837
#	175077
#	201235
#	233337
#	269612
#	285832
#
# Disc length: 4102 seconds
#
# Revision: 0
# Processed by: cddbd v1.5.1PL0 Copyright (c) Steve Scherf et al.
# Submitted via: CDex 1.51
#
DISCID=9510040b
DTITLE=Török Ádám és Mini - Supersession 2000
DYEAR=1900
DGENRE=Jazz
TTITLE0=Tabán 2000
TTITLE1=Árny a sarkon túl
TTITLE2=Lusta blues
TTITLE3=Hívj fel
TTITLE4=Körbezár a dzsungel
TTITLE5=Álomkocsma XXI. század
TTITLE6=Everyday I have the blues
TTITLE7=Dobshow
TTITLE8=Misztikus utazás a Pecsában
TTITLE9=Alligátor
TTITLE10=Call me, baby, one more time
EXTD=
EXTT0=
EXTT1=
EXTT2=
EXTT3=
EXTT4=
EXTT5=
EXTT6=
EXTT7=
EXTT8=
EXTT9=
EXTT10=
PLAYORDER=
